<svg width="346" height="79" viewBox="0 0 346 79" fill="none" xmlns="http://www.w3.org/2000/svg">
<path d="M15.6974 4.27273V77H0.321023V4.27273H15.6974ZM139.17 22.4545L120.101 77H103.055L83.9858 22.4545H99.9659L111.294 61.4815H111.862L123.155 22.4545H139.17Z" fill="black"/>
<path d="M43.1921 45.4659V77H28.0643V22.4545H42.4819V32.0781H43.1211C44.3285 28.9058 46.3526 26.3963 49.1935 24.5497C52.0344 22.6795 55.479 21.7443 59.5273 21.7443C63.3152 21.7443 66.6178 22.5729 69.435 24.2301C72.2523 25.8873 74.4421 28.2547 76.0046 31.3324C77.5671 34.3864 78.3484 38.0322 78.3484 42.2699V77H63.2205V44.9688C63.2442 41.6307 62.3919 39.0265 60.6637 37.1562C58.9355 35.2623 56.5562 34.3153 53.5259 34.3153C51.4899 34.3153 49.6907 34.7533 48.1282 35.6293C46.5894 36.5052 45.382 37.7836 44.506 39.4645C43.6538 41.1217 43.2158 43.1222 43.1921 45.4659ZM170.012 78.0653C164.401 78.0653 159.572 76.929 155.523 74.6562C151.499 72.3598 148.397 69.1165 146.219 64.9261C144.041 60.7121 142.952 55.7287 142.952 49.9759C142.952 44.3651 144.041 39.4408 146.219 35.2031C148.397 30.9654 151.463 27.6629 155.417 25.2955C159.394 22.928 164.058 21.7443 169.408 21.7443C173.007 21.7443 176.357 22.3243 179.458 23.4844C182.583 24.6207 185.306 26.3371 187.626 28.6335C189.969 30.9299 191.792 33.8182 193.094 37.2983C194.397 40.7547 195.048 44.803 195.048 49.4432V53.598H148.989V44.223H180.808C180.808 42.045 180.334 40.1155 179.387 38.4347C178.44 36.7538 177.126 35.4399 175.445 34.4929C173.788 33.5223 171.859 33.0369 169.657 33.0369C167.361 33.0369 165.325 33.5696 163.549 34.6349C161.797 35.6766 160.424 37.0852 159.43 38.8608C158.435 40.6127 157.926 42.5658 157.903 44.7202V53.6335C157.903 56.3324 158.4 58.6643 159.394 60.6293C160.412 62.5942 161.844 64.1094 163.691 65.1747C165.538 66.2401 167.728 66.7727 170.261 66.7727C171.942 66.7727 173.48 66.536 174.877 66.0625C176.274 65.589 177.469 64.8788 178.464 63.9318C179.458 62.9848 180.216 61.8248 180.737 60.4517L194.728 61.375C194.018 64.7367 192.562 67.6723 190.36 70.1818C188.182 72.6676 185.365 74.6089 181.908 76.0057C178.476 77.3788 174.51 78.0653 170.012 78.0653ZM220.048 45.4659V77H204.92V22.4545H219.337V32.0781H219.977C221.184 28.9058 223.208 26.3963 226.049 24.5497C228.89 22.6795 232.335 21.7443 236.383 21.7443C240.171 21.7443 243.473 22.5729 246.29 24.2301C249.108 25.8873 251.298 28.2547 252.86 31.3324C254.423 34.3864 255.204 38.0322 255.204 42.2699V77H240.076V44.9688C240.1 41.6307 239.247 39.0265 237.519 37.1562C235.791 35.2623 233.412 34.3153 230.381 34.3153C228.345 34.3153 226.546 34.7533 224.984 35.6293C223.445 36.5052 222.237 37.7836 221.362 39.4645C220.509 41.1217 220.071 43.1222 220.048 45.4659ZM267.127 77V22.4545H282.255V77H267.127ZM274.726 15.4233C272.477 15.4233 270.548 14.6776 268.938 13.1861C267.352 11.6709 266.559 9.85985 266.559 7.75284C266.559 5.6695 267.352 3.8821 268.938 2.39062C270.548 0.875471 272.477 0.117894 274.726 0.117894C276.975 0.117894 278.893 0.875471 280.479 2.39062C282.089 3.8821 282.894 5.6695 282.894 7.75284C282.894 9.85985 282.089 11.6709 280.479 13.1861C278.893 14.6776 276.975 15.4233 274.726 15.4233ZM319.018 78.0653C313.502 78.0653 308.731 76.8935 304.707 74.5497C300.706 72.1823 297.616 68.8916 295.438 64.6776C293.26 60.4399 292.171 55.5275 292.171 49.9403C292.171 44.3059 293.26 39.3816 295.438 35.1676C297.616 30.9299 300.706 27.6392 304.707 25.2955C308.731 22.928 313.502 21.7443 319.018 21.7443C324.534 21.7443 329.292 22.928 333.293 25.2955C337.318 27.6392 340.419 30.9299 342.597 35.1676C344.775 39.3816 345.864 44.3059 345.864 49.9403C345.864 55.5275 344.775 60.4399 342.597 64.6776C340.419 68.8916 337.318 72.1823 333.293 74.5497C329.292 76.8935 324.534 78.0653 319.018 78.0653ZM319.089 66.3466C321.598 66.3466 323.693 65.6364 325.374 64.2159C327.055 62.7718 328.322 60.8068 329.174 58.321C330.05 55.8352 330.488 53.0062 330.488 49.8338C330.488 46.6615 330.05 43.8324 329.174 41.3466C328.322 38.8608 327.055 36.8958 325.374 35.4517C323.693 34.0076 321.598 33.2855 319.089 33.2855C316.556 33.2855 314.425 34.0076 312.697 35.4517C310.992 36.8958 309.702 38.8608 308.826 41.3466C307.974 43.8324 307.548 46.6615 307.548 49.8338C307.548 53.0062 307.974 55.8352 308.826 58.321C309.702 60.8068 310.992 62.7718 312.697 64.2159C314.425 65.6364 316.556 66.3466 319.089 66.3466Z" fill="#5125D2"/>
</svg>
